<?xml version="1.0" encoding="utf-8"?>
<!-- Generator: Adobe Illustrator 24.0.0, SVG Export Plug-In . SVG Version: 6.00 Build 0)  -->
<svg version="1.1" id="Calque_1" xmlns="http://www.w3.org/2000/svg" xmlns:xlink="http://www.w3.org/1999/xlink" x="0px" y="0px"
	 viewBox="0 0 419.87 415.33" style="enable-background:new 0 0 419.87 415.33;" xml:space="preserve">
<style type="text/css">
	.st0{fill:#FDCA44;}
</style>
<g>
	<path class="st0" d="M233.23,378.95c-1.96-12.28-3.38-24.69-6.08-36.81c-1.95-8.74-5.34-17.21-8.58-25.6
		c-8.19-21.22-23.15-37.24-39.82-52.12c-16.49-14.72-32.63-29.86-44.85-48.62c-9.69-14.88-14.61-31.3-14.58-48.74
		c0.04-20.9,7.2-39.77,22.6-54.25c12.5-11.76,27.73-18.21,45.36-18.78c17.75-0.57,33.7,4.84,48.85,13.22
		c4.29,2.37,6.01,1.65,8.05-2.65c5.79-12.17,13.83-22.84,23.55-32.16c7.05-6.76,15.1-12.25,24.46-15.13
		c8.49-2.61,17.12-3.36,24.29,3.76c6.62,6.58,7.14,17.56,1.19,27.24c-5.4,8.79-13.51,14.42-22.55,18.97
		c-7.99,4.02-16.17,7.31-25.31,6.86c-1.53-0.08-3.01-1.26-4.51-1.93c1.17-1.14,2.15-2.79,3.56-3.31c4.89-1.82,9.93-3.23,14.89-4.84
		c9.07-2.94,16.93-7.87,22.31-15.77c1.97-2.9,2.71-7.03,2.88-10.66c0.27-5.7-4.85-8.99-10.63-8.79
		c-11.16,0.38-19.7,6.25-27.44,13.03c-9.15,8.01-16.94,17.35-22.29,28.56c-1.36,2.84-0.41,3.9,1.43,5.24
		c13.72,10.03,28.89,17.38,45.59,19.84c15.06,2.22,29.33-1.24,40.87-12.51c15.77-15.4,26.08-33.92,32.4-54.88
		c0.83-2.75,2.23-5.32,3.37-7.97c0.41,0.06,0.81,0.13,1.22,0.19c-0.85,4.91-1.3,9.94-2.64,14.72c-5.03,18.05-10.67,36.07-23.6,50.2
		c-16.84,18.41-37.91,23.89-61.96,17.37c-12.58-3.41-24.24-8.95-35.12-16.15c-6.36-4.21-7.42-3.62-10.32,3.18
		c-7.91,18.53-15.36,37.54-28.7,52.91c-9.61,11.07-20.79,20.88-37.48,19.33c-10.08-0.93-17.81-5.45-22.8-14.15
		c-4.71-8.21-3.16-16.13,1.34-24.2c8.89-15.92,22.21-26.73,38.59-33.68c9.56-4.06,19.74-6.68,29.71-9.69
		c1.52-0.46,3.46,0.45,5.2,0.73c0.03,0.45,0.05,0.91,0.08,1.36c-1.04,0.63-2.01,1.47-3.13,1.85c-8.04,2.76-16.39,4.81-24.11,8.27
		c-9.06,4.06-16.9,10.26-23.13,18.08c-3.3,4.15-5.88,8.87-8.8,13.32c-5.3,8.09,1.5,21.18,12.77,21.13
		c12.76-0.05,21.45-6.23,29.23-15.33c12.01-14.06,18.83-31.01,27.04-47.2c1.42-2.8,1.34-4.75-1.82-6.44
		c-14.51-7.81-29.68-13.12-46.41-12.67c-24.94,0.67-47.81,17.27-55.13,41.28c-8.19,26.86-2.6,51.47,14.13,73.65
		c13.06,17.31,29.43,31.44,45.22,46.12c15.84,14.74,27.82,32.01,35.07,52.6c5.88,16.67,8.21,33.75,7.91,51.28
		c-0.06,3.57-0.6,7.12-0.92,10.69C233.53,378.9,233.38,378.92,233.23,378.95z"/>
	<path class="st0" d="M159.86,278.01c-13.12-8.84-26.51-17.3-39.27-26.64c-9.36-6.86-18.15-14.58-26.72-22.43
		c-12.23-11.22-22.68-23.89-30.93-38.47c-6.56-11.58-11.13-23.97-13.06-36.77c-1.7-11.23-2-23.16,1.88-34.36
		c3.16-9.11,6.94-18.01,10.44-27c2.39-6.14,1.93-7.23-4.14-10.9c-3.61-2.18-7.12-4.54-11.24-7.18c2.44-3.39,4.35-6.41,6.67-9.06
		c0.67-0.77,2.98-1.13,3.8-0.58c9.88,6.7,19.62,13.61,29.78,20.74c-10.25,12.14-16.23,25.81-19.84,40.11
		c-3.24,12.86-4.02,26.25-0.68,39.59c4.92,19.69,15.1,36.55,27.49,52.17c4.81,6.06,10.33,11.68,16.2,16.73
		c16.42,14.12,33.18,27.83,49.8,41.72c0.35,0.29,0.54,0.78,0.8,1.18C160.52,277.25,160.19,277.63,159.86,278.01z"/>
	<path class="st0" d="M110.91,100.53c-15.73,18.31-24.26,38.16-22.47,61.63c0.97,12.63,5.31,24.16,11.15,35.38
		c8.3,15.95,19.47,29.54,32.28,41.9c7.94,7.66,16.12,15.07,24.2,22.59c1.67,1.56,3.39,3.07,5.09,4.6c-0.27,0.36-0.54,0.73-0.81,1.09
		c-4.41-3.11-9.01-5.98-13.19-9.38c-11.2-9.1-22.66-17.95-33.19-27.78c-17.35-16.2-31.25-34.94-37.91-58.21
		c-3.68-12.88-3.98-26.01-1.66-39.1c2.63-14.82,8.24-28.53,16.63-41.11c2.07-3.1,3.49-2.77,6.13-0.77
		C101.42,94.59,106.05,97.32,110.91,100.53z"/>
	<path class="st0" d="M170.13,265.61c-4.44-3.5-9.24-6.63-13.25-10.56c-12.49-12.25-25.35-24.23-36.79-37.41
		c-12.14-13.99-20.76-30.44-23.6-48.95c-2.13-13.84,0.22-27.53,6.46-40.35c1.53-3.15,3.07-3.81,5.97-1.6
		c2.31,1.76,5.2,2.82,7.35,4.73c1.02,0.91,1.74,3.48,1.19,4.61c-6.93,14.2-9,28.71-5.54,44.37c2.6,11.78,6.99,22.49,13.95,32.19
		c7.13,9.94,14.08,20.08,21.96,29.41c5.98,7.07,13.32,12.98,20.04,19.43c1.06,1.02,2.01,2.15,3.02,3.23
		C170.63,265.01,170.38,265.31,170.13,265.61z"/>
	<path class="st0" d="M328.21,90c5.06,3.45,9.22,6.29,13.92,9.49c-3.15,4.82-6.12,9.35-9.25,14.14c-4.91-3.29-9.47-6.35-14.35-9.62
		C321.84,99.2,324.95,94.7,328.21,90z"/>
	<path class="st0" d="M344.56,95.99c-4.99-3.37-9.46-6.39-14.24-9.62c3.13-4.73,6.07-9.17,9.25-13.97
		c4.69,3.15,9.11,6.12,13.89,9.33C350.4,86.64,347.58,91.16,344.56,95.99z"/>
	<path class="st0" d="M355.33,78.55c-4.99-3.37-9.46-6.39-14.24-9.62c3.13-4.73,6.07-9.17,9.25-13.97
		c4.69,3.15,9.11,6.12,13.89,9.33C361.17,69.2,358.35,73.71,355.33,78.55z"/>
	<path class="st0" d="M131.19,115.41c-2.59,3.73-4.95,7.42-7.66,10.83c-0.68,0.85-2.86,1.52-3.7,1.06
		c-4.12-2.23-8.01-4.87-12.11-7.44c2.4-3.82,4.47-7.1,6.54-10.38c1.77-2.79,4-3.07,6.64-1.22
		C124.23,110.59,127.57,112.9,131.19,115.41z"/>
</g>
</svg>
